<?xml version="1.0" standalone="no"?>
<!DOCTYPE svg PUBLIC "-//W3C//DTD SVG 20010904//EN"
 "http://www.w3.org/TR/2001/REC-SVG-20010904/DTD/svg10.dtd">
<svg version="1.0" xmlns="http://www.w3.org/2000/svg"
 width="930.000000pt" height="497.000000pt" viewBox="0 0 930.000000 497.000000"
 preserveAspectRatio="xMidYMid meet">

<g transform="translate(0.000000,497.000000) scale(0.100000,-0.100000)"
fill="#000000" stroke="none">
<path d="M4583 4720 c-243 -26 -499 -98 -711 -200 -215 -104 -377 -220 -590
-423 -131 -125 -194 -168 -309 -208 -108 -39 -227 -36 -892 20 -332 28 -620
48 -640 45 -86 -16 -154 -67 -204 -154 -36 -63 -100 -122 -182 -168 -75 -42
-125 -101 -145 -170 -6 -24 -10 -374 -10 -994 0 -909 1 -960 19 -1007 27 -73
64 -115 134 -151 92 -49 130 -83 182 -162 80 -121 136 -157 245 -158 36 0 349
25 695 56 583 53 636 56 715 45 161 -23 261 -78 428 -235 442 -415 941 -610
1517 -593 316 9 556 67 840 201 203 96 359 206 565 396 137 127 196 166 311
204 128 43 162 42 830 -18 339 -31 647 -56 685 -56 116 0 181 41 256 160 44
69 98 118 177 160 34 18 75 50 92 71 62 79 59 15 59 1092 l0 983 -26 52 c-30
60 -65 92 -143 132 -63 32 -126 93 -164 160 -59 103 -146 154 -262 152 -38 -1
-340 -24 -670 -52 -537 -46 -609 -50 -685 -40 -166 22 -269 79 -440 244 -63
61 -146 137 -185 167 -283 226 -634 379 -995 434 -127 19 -384 27 -497 15z
m372 -90 c361 -33 684 -153 975 -360 53 -37 160 -128 239 -201 79 -74 160
-147 180 -163 52 -41 187 -103 262 -120 135 -31 193 -29 815 23 331 28 622 51
648 51 76 0 117 -30 170 -122 39 -67 119 -144 185 -178 90 -45 154 -132 121
-163 -9 -9 -15 -8 -24 7 -39 65 -57 83 -111 112 -87 48 -148 105 -201 187 -26
39 -54 77 -63 84 -41 32 -76 31 -657 -18 -319 -27 -631 -49 -694 -49 -135 0
-236 22 -347 75 -109 51 -156 86 -293 220 -245 238 -474 379 -786 484 -359
120 -794 125 -1149 15 -332 -103 -583 -254 -840 -504 -168 -164 -255 -218
-417 -259 -145 -37 -200 -36 -848 19 -333 28 -626 49 -652 47 -58 -5 -70 -15
-124 -97 -52 -81 -129 -154 -216 -204 -54 -31 -71 -48 -88 -82 -31 -67 -64
-50 -40 20 12 37 52 73 130 118 71 42 127 94 174 166 24 37 54 77 67 89 51 45
62 45 698 -7 328 -28 637 -50 688 -50 234 0 383 69 611 283 202 190 326 279
537 385 312 156 690 225 1050 192z m-565 -690 c24 -13 43 -72 35 -110 -8 -37
-49 -70 -85 -70 -36 0 -80 50 -80 91 0 34 23 85 42 92 22 9 69 7 88 -3z m521
0 c32 -18 21 -28 -28 -27 -37 2 -48 -2 -51 -15 -2 -11 8 -20 35 -28 50 -17 63
-28 63 -56 0 -46 -61 -70 -111 -44 -33 18 -21 28 34 26 67 -1 71 21 7 45 -56
20 -74 57 -45 89 20 22 64 26 96 10z m100 -40 c25 0 25 -20 -1 -27 -29 -8 -28
-65 3 -86 20 -14 20 -16 4 -22 -28 -11 -47 13 -47 60 0 29 -5 45 -15 49 -19 7
-20 26 -1 26 7 0 17 10 21 23 l8 22 4 -22 c3 -15 12 -23 24 -23z m-531 -12 c0
-9 3 -9 12 0 7 7 21 12 33 12 34 0 45 -20 45 -83 0 -76 -24 -75 -28 1 -3 47
-5 52 -26 52 -28 0 -36 -17 -36 -71 0 -21 -4 -39 -10 -39 -6 0 -10 30 -10 70
0 40 4 70 10 70 6 0 10 -5 10 -12z m214 -4 c9 -8 16 -24 16 -35 0 -16 -7 -19
-45 -19 -25 0 -45 -4 -45 -9 0 -19 31 -33 60 -27 39 7 42 -21 3 -30 -43 -11
-77 14 -81 60 -5 63 52 101 92 60z m448 -1 c23 -20 24 -80 1 -105 -36 -40
-103 -6 -103 52 0 57 62 90 102 53z m68 5 c0 -9 3 -9 12 0 34 34 88 -2 88 -58
0 -45 -28 -75 -64 -68 -21 4 -25 1 -28 -20 -2 -14 -9 -27 -15 -30 -10 -3 -13
20 -13 92 0 57 4 96 10 96 6 0 10 -5 10 -12z m-1023 -712 c75 -34 154 -113
188 -188 13 -29 28 -86 34 -126 27 -203 -60 -385 -224 -467 -57 -28 -67 -30
-180 -30 -116 0 -123 1 -187 33 -151 74 -235 250 -210 437 25 188 108 298 271
361 24 9 70 13 141 11 90 -2 114 -7 167 -31z m753 -266 l175 -294 3 297 2 297
75 0 75 0 -2 -417 -3 -418 -89 0 -90 0 -175 293 -176 292 -5 -292 -5 -293 -70
0 -70 0 -3 418 -2 418 92 -3 93 -3 175 -295z m1025 230 l0 -65 -168 -3 -168
-2 3 -93 3 -92 123 -3 122 -3 0 -64 0 -64 -122 -3 -123 -3 0 -115 0 -115 178
-3 177 -2 0 -70 0 -70 -252 2 -253 3 -3 405 c-1 223 0 411 3 418 3 10 57 12
242 10 l238 -3 0 -65z m-1847 -1202 c6 -7 38 -76 72 -153 34 -77 64 -144 67
-148 3 -5 34 58 70 140 68 157 82 179 107 170 14 -6 16 -30 14 -199 -3 -192
-3 -193 -25 -196 -23 -3 -23 -3 -23 129 0 73 -4 129 -8 124 -5 -6 -30 -59 -56
-120 -26 -60 -54 -117 -62 -125 -21 -22 -35 -2 -89 120 -26 58 -51 110 -57
115 -6 7 -8 -32 -6 -115 l3 -125 -25 0 -25 0 -3 185 c-1 101 0 190 2 197 7 17
30 17 44 1z m589 0 c16 -20 163 -357 163 -373 0 -8 -9 -15 -21 -15 -15 0 -26
13 -42 50 l-22 50 -98 0 -97 0 -23 -47 c-15 -33 -29 -49 -45 -51 -13 -2 -22 2
-22 10 0 15 148 357 163 376 5 6 15 12 22 12 7 0 17 -6 22 -12z m461 -15 c55
-41 59 -127 7 -169 -22 -18 -24 -22 -11 -33 16 -13 66 -132 66 -156 0 -18 -34
-20 -48 -2 -6 7 -20 39 -33 72 -12 33 -26 66 -32 73 -6 7 -34 12 -73 12 l-63
0 -3 -82 c-3 -77 -5 -83 -25 -86 l-23 -3 0 194 c0 106 3 197 8 201 4 5 51 6
105 4 78 -4 104 -9 125 -25z m397 2 c0 -18 -8 -20 -67 -23 l-68 -3 0 -175 0
-175 -22 3 c-23 3 -23 5 -26 176 l-2 172 -65 0 c-56 0 -65 2 -65 18 0 10 3 22
7 26 4 3 75 5 157 4 143 -3 151 -4 151 -23z m-2705 -205 c23 -14 -16 -39 -61
-40 -20 0 -58 -7 -85 -15 -27 -8 -64 -15 -82 -15 -41 0 -92 25 -92 46 0 19 26
29 43 17 25 -20 59 -21 120 -3 69 20 134 25 157 10z m4132 -9 c65 -19 100 -18
125 2 17 12 43 2 43 -17 0 -21 -51 -46 -93 -46 -19 0 -56 7 -83 15 -27 8 -65
15 -84 15 -19 0 -44 7 -55 16 -17 13 -18 16 -5 24 24 15 79 12 152 -9z m-5957
-195 c16 -38 52 -68 131 -111 63 -33 122 -92 178 -176 57 -86 81 -102 153
-101 32 1 310 24 617 52 308 27 612 50 676 50 136 0 235 -21 347 -75 102 -48
148 -82 271 -198 214 -204 427 -340 688 -438 363 -136 800 -160 1163 -63 338
91 610 244 881 498 157 147 242 201 385 246 129 40 203 38 915 -25 l653 -59
36 20 c21 11 48 39 66 69 44 73 140 165 223 214 55 32 77 52 93 82 21 42 42
47 47 13 5 -32 -40 -87 -97 -119 -93 -53 -154 -108 -209 -189 -60 -90 -88
-115 -140 -127 -26 -6 -243 10 -702 51 -731 65 -740 65 -898 15 -112 -35 -189
-85 -331 -215 -174 -158 -212 -188 -321 -259 -320 -208 -696 -320 -1070 -321
-406 0 -768 107 -1103 326 -123 80 -170 118 -307 248 -149 141 -254 204 -395
239 -130 33 -200 30 -845 -28 -338 -30 -635 -55 -660 -55 -74 1 -109 25 -171
119 -63 96 -105 135 -204 191 -77 43 -103 73 -112 125 -8 48 22 48 42 1z
m3467 -537 l3 -90 -30 1 c-16 1 -32 1 -35 0 -3 -1 -22 -4 -42 -5 -47 -5 -73
20 -43 41 10 8 25 14 32 14 7 0 13 9 13 20 0 11 -4 20 -10 20 -5 0 -10 -4 -10
-9 0 -5 -7 -11 -15 -15 -26 -10 -17 24 10 36 33 15 55 -4 55 -47 0 -30 20 -52
34 -38 11 12 7 133 -5 133 -8 0 -8 5 1 15 29 35 39 17 42 -76z m58 7 c0 -58 4
-86 13 -89 6 -3 -1 -6 -18 -6 l-30 -1 0 83 c0 75 6 96 28 97 4 0 7 -38 7 -84z
m1072 -3 c2 -49 3 -89 2 -91 0 -1 -19 -5 -41 -8 -45 -6 -65 10 -65 51 0 34 19
55 50 55 23 0 24 3 19 34 -5 32 1 42 25 45 3 1 8 -38 10 -86z m-1576 56 c3 -6
1 -16 -5 -22 -8 -8 -11 -8 -11 1 0 7 -11 12 -25 12 -20 0 -25 -5 -25 -25 0
-20 5 -25 24 -25 13 0 27 6 29 13 3 6 6 0 6 -14 1 -23 -2 -25 -29 -21 -26 4
-30 1 -30 -20 0 -13 5 -29 12 -36 9 -9 4 -12 -26 -12 -32 0 -37 2 -26 14 6 9
11 40 10 73 -1 32 -1 61 -1 66 1 11 89 8 97 -4z m102 -55 c44 -30 16 -104 -39
-104 -17 0 -59 44 -59 62 0 14 47 58 62 58 8 0 24 -7 36 -16z m710 -11 c18
-24 15 -50 -8 -73 -26 -26 -55 -25 -81 1 -16 16 -20 29 -15 50 10 53 -11 30
-39 -43 -29 -76 -41 -96 -51 -86 -3 4 2 18 11 32 16 24 16 27 -13 81 l-30 55
30 0 c16 0 27 -4 23 -10 -3 -5 0 -22 8 -36 l14 -27 7 27 c4 15 4 31 0 37 -3 6
8 9 30 7 19 -1 39 1 43 6 11 11 56 -3 71 -21z m75 -63 c4 0 12 0 18 0 8 0 10
14 6 39 -3 29 -1 41 9 45 17 6 20 -2 27 -61 3 -29 1 -43 -6 -44 -7 0 -25 -2
-42 -4 -16 -2 -35 -1 -42 3 -18 11 -20 91 -3 102 12 8 16 1 20 -36 3 -24 8
-44 13 -44z m277 82 c0 -4 15 -7 33 -7 29 0 32 -3 35 -35 2 -19 8 -41 14 -47
8 -10 4 -13 -19 -13 -27 0 -28 2 -25 41 4 36 2 40 -14 37 -15 -3 -19 -12 -19
-41 0 -30 -4 -37 -20 -37 -17 0 -20 7 -20 48 0 43 8 61 28 62 4 0 7 -3 7 -8z
m188 -19 c14 -22 14 -23 -23 -23 -29 0 -36 -3 -33 -17 2 -12 13 -18 31 -18 32
1 35 -10 8 -25 -27 -14 -37 -13 -55 6 -22 22 -20 60 5 85 24 24 46 22 67 -8z
m96 11 c25 -24 19 -34 -20 -34 -28 0 -35 -3 -32 -17 2 -11 14 -19 31 -21 35
-4 35 -20 0 -28 -54 -14 -82 68 -36 104 22 16 38 15 57 -4z m205 3 c14 -18 2
-30 -16 -16 -9 8 -13 8 -13 1 0 -6 9 -16 20 -22 29 -16 27 -58 -4 -66 -29 -7
-46 1 -46 22 0 17 17 19 23 2 2 -7 8 -10 12 -5 5 4 -1 16 -13 27 -27 25 -28
45 -4 59 23 14 28 13 41 -2z m-1431 -9 c-3 -7 -11 -13 -19 -13 -19 0 -25 -55
-7 -66 8 -6 -1 -9 -27 -9 -27 0 -35 3 -26 9 10 6 12 20 8 44 -7 43 -3 47 41
47 22 0 32 -4 30 -12z m829 -1 c-2 -7 -10 -12 -18 -12 -19 0 -25 -55 -7 -66 9
-6 3 -9 -17 -9 -29 0 -30 2 -29 43 1 23 2 45 3 49 1 3 17 6 37 6 22 0 34 -4
31 -11z"/>
<path d="M4302 3908 c-17 -17 -15 -84 4 -102 36 -37 94 -9 94 45 0 48 -16 69
-53 69 -18 0 -38 -5 -45 -12z"/>
<path d="M4630 3860 c0 -5 14 -10 31 -10 17 0 28 4 24 10 -3 6 -17 10 -31 10
-13 0 -24 -4 -24 -10z"/>
<path d="M5074 3856 c-12 -32 0 -61 28 -64 29 -4 44 22 33 58 -7 24 -53 28
-61 6z"/>
<path d="M5224 3856 c-12 -32 0 -61 28 -64 29 -4 44 22 33 58 -7 24 -53 28
-61 6z"/>
<path d="M3940 3074 c-122 -40 -169 -118 -170 -280 0 -111 18 -177 65 -232 63
-73 187 -92 287 -43 83 40 128 135 128 271 0 189 -90 292 -252 289 -24 0 -50
-3 -58 -5z"/>
<path d="M4647 1788 l-36 -83 71 -3 c39 -2 72 -1 74 1 5 5 -54 148 -66 160 -4
4 -23 -29 -43 -75z"/>
<path d="M4980 1835 l0 -65 70 0 c80 0 110 19 110 69 0 44 -31 61 -112 61
l-68 0 0 -65z"/>
<path d="M4385 920 c-3 -5 -1 -10 4 -10 6 0 11 5 11 10 0 6 -2 10 -4 10 -3 0
-8 -4 -11 -10z"/>
<path d="M5562 938 c2 -21 8 -33 18 -33 10 0 16 12 18 33 3 27 0 32 -18 32
-18 0 -21 -5 -18 -32z"/>
<path d="M4104 966 c-3 -8 -4 -25 -2 -38 4 -32 42 -32 46 0 6 38 -32 70 -44
38z"/>
<path d="M4795 960 c-6 -18 17 -70 30 -70 14 0 24 41 15 64 -11 31 -36 34 -45
6z"/>
<path d="M5355 970 c-3 -5 1 -10 9 -10 9 0 16 5 16 10 0 6 -4 10 -9 10 -6 0
-13 -4 -16 -10z"/>
<path d="M5465 970 c-3 -5 1 -10 10 -10 9 0 13 5 10 10 -3 6 -8 10 -10 10 -2
0 -7 -4 -10 -10z"/>
</g>
</svg>
