<?xml version="1.0" encoding="utf-8"?>
<!-- Generator: Adobe Illustrator 25.4.1, SVG Export Plug-In . SVG Version: 6.00 Build 0)  -->
<svg version="1.1" id="Layer_1" xmlns="http://www.w3.org/2000/svg" xmlns:xlink="http://www.w3.org/1999/xlink" x="0px" y="0px"
	 width="820px" height="630.404px" viewBox="0 0 820 630.404" style="enable-background:new 0 0 820 630.404;" xml:space="preserve"
	>
<style type="text/css">
	.st0{fill:#F5F5F5;}
	.st1{fill:none;}
	.st2{opacity:0.25;}
	.st3{fill:#333333;}
	.st4{fill:url(#SVGID_1_);}
	.st5{fill:url(#SVGID_00000132089480750269607490000001058680774249360523_);}
	.st6{fill:url(#SVGID_00000129207393644330591170000007920617111917053108_);}
	.st7{fill:url(#SVGID_00000116929009631065382560000011751226312531222717_);}
	.st8{fill:url(#SVGID_00000043428074796978492680000011410509982301125250_);}
	.st9{fill:url(#SVGID_00000037659163471985691690000008237503736984066945_);}
	.st10{fill:url(#SVGID_00000114039730425127063680000017727069554339665069_);}
	.st11{fill:url(#SVGID_00000048490728324093036760000014871628451636249248_);}
</style>
<g id="GUIDE">
	<rect x="110.553" y="122.658" class="st0" width="669.148" height="387.842"/>
	<g>
		<path class="st1" d="M777.74,512.361H111.698c-1.379,0-2.507-1.128-2.507-2.507V123.836c0-1.379,1.128-2.507,2.507-2.507H777.74
			c1.379,0,2.507,1.128,2.507,2.507v386.018C780.247,511.233,779.119,512.361,777.74,512.361z"/>
	</g>
	<g class="st2">
		<g>
			<path class="st3" d="M778.804,467.681H110.079c-0.276,0-0.5-0.224-0.5-0.5s0.224-0.5,0.5-0.5h668.725c0.276,0,0.5,0.224,0.5,0.5
				S779.08,467.681,778.804,467.681z"/>
		</g>
		<g>
			<path class="st3" d="M778.804,425.041H110.079c-0.276,0-0.5-0.224-0.5-0.5s0.224-0.5,0.5-0.5h668.725c0.276,0,0.5,0.224,0.5,0.5
				S779.08,425.041,778.804,425.041z"/>
		</g>
		<g>
			<path class="st3" d="M778.804,382.4H110.079c-0.276,0-0.5-0.224-0.5-0.5s0.224-0.5,0.5-0.5h668.725c0.276,0,0.5,0.224,0.5,0.5
				S779.08,382.4,778.804,382.4z"/>
		</g>
		<g>
			<path class="st3" d="M778.804,339.759H110.079c-0.276,0-0.5-0.224-0.5-0.5s0.224-0.5,0.5-0.5h668.725c0.276,0,0.5,0.224,0.5,0.5
				S779.08,339.759,778.804,339.759z"/>
		</g>
		<g>
			<path class="st3" d="M778.804,297.119H110.079c-0.276,0-0.5-0.224-0.5-0.5s0.224-0.5,0.5-0.5h668.725c0.276,0,0.5,0.224,0.5,0.5
				S779.08,297.119,778.804,297.119z"/>
		</g>
		<g>
			<path class="st3" d="M778.804,254.478H110.079c-0.276,0-0.5-0.224-0.5-0.5s0.224-0.5,0.5-0.5h668.725c0.276,0,0.5,0.224,0.5,0.5
				S779.08,254.478,778.804,254.478z"/>
		</g>
		<g>
			<path class="st3" d="M778.804,211.838H110.079c-0.276,0-0.5-0.224-0.5-0.5s0.224-0.5,0.5-0.5h668.725c0.276,0,0.5,0.224,0.5,0.5
				S779.08,211.838,778.804,211.838z"/>
		</g>
		<g>
			<path class="st3" d="M778.804,169.197H110.079c-0.276,0-0.5-0.224-0.5-0.5s0.224-0.5,0.5-0.5h668.725c0.276,0,0.5,0.224,0.5,0.5
				S779.08,169.197,778.804,169.197z"/>
		</g>
	</g>
	
		<linearGradient id="SVGID_1_" gradientUnits="userSpaceOnUse" x1="157.4392" y1="109.1395" x2="188.0128" y2="162.0945" gradientTransform="matrix(1 0 0 -1 0 630)">
		<stop  offset="0" style="stop-color:#00B4E5"/>
		<stop  offset="1" style="stop-color:#1CD0BB"/>
	</linearGradient>
	<rect x="140.175" y="477.873" class="st4" width="65.102" height="33.02"/>
	
		<linearGradient id="SVGID_00000075850532126106424110000001598021212369392804_" gradientUnits="userSpaceOnUse" x1="226.9405" y1="114.2962" x2="275.3775" y2="198.1918" gradientTransform="matrix(1 0 0 -1 0 630)">
		<stop  offset="0" style="stop-color:#00B4E5"/>
		<stop  offset="1" style="stop-color:#1CD0BB"/>
	</linearGradient>
	
		<rect x="218.608" y="436.619" style="fill:url(#SVGID_00000075850532126106424110000001598021212369392804_);" width="65.102" height="74.274"/>
	
		<linearGradient id="SVGID_00000148653006831742666060000015758547780925140618_" gradientUnits="userSpaceOnUse" x1="300.6319" y1="117.0338" x2="358.552" y2="217.3542" gradientTransform="matrix(1 0 0 -1 0 630)">
		<stop  offset="0" style="stop-color:#00B4E5"/>
		<stop  offset="1" style="stop-color:#1CD0BB"/>
	</linearGradient>
	
		<rect x="297.041" y="414.719" style="fill:url(#SVGID_00000148653006831742666060000015758547780925140618_);" width="65.102" height="96.174"/>
	
		<linearGradient id="SVGID_00000063628338365966137990000011125694593175942542_" gradientUnits="userSpaceOnUse" x1="373.8824" y1="120.0259" x2="442.1675" y2="238.2991" gradientTransform="matrix(1 0 0 -1 0 630)">
		<stop  offset="0" style="stop-color:#00B4E5"/>
		<stop  offset="1" style="stop-color:#1CD0BB"/>
	</linearGradient>
	
		<rect x="375.474" y="390.782" style="fill:url(#SVGID_00000063628338365966137990000011125694593175942542_);" width="65.102" height="120.111"/>
	
		<linearGradient id="SVGID_00000003106779660799569230000012008335213831958445_" gradientUnits="userSpaceOnUse" x1="453.749" y1="119.1982" x2="519.1671" y2="232.5058" gradientTransform="matrix(1 0 0 -1 0 630)">
		<stop  offset="0" style="stop-color:#00B4E5"/>
		<stop  offset="1" style="stop-color:#1CD0BB"/>
	</linearGradient>
	
		<rect x="453.907" y="397.403" style="fill:url(#SVGID_00000003106779660799569230000012008335213831958445_);" width="65.102" height="113.49"/>
	
		<linearGradient id="SVGID_00000154422295234522780430000006522791947453371569_" gradientUnits="userSpaceOnUse" x1="522.8092" y1="124.6096" x2="606.9728" y2="270.3854" gradientTransform="matrix(1 0 0 -1 0 630)">
		<stop  offset="0" style="stop-color:#00B4E5"/>
		<stop  offset="1" style="stop-color:#1CD0BB"/>
	</linearGradient>
	
		<rect x="532.34" y="354.112" style="fill:url(#SVGID_00000154422295234522780430000006522791947453371569_);" width="65.102" height="156.781"/>
	
		<linearGradient id="SVGID_00000013168791928648112860000001206022832447704225_" gradientUnits="userSpaceOnUse" x1="578.7474" y1="137.597" x2="707.9006" y2="361.297" gradientTransform="matrix(1 0 0 -1 0 630)">
		<stop  offset="0" style="stop-color:#00B4E5"/>
		<stop  offset="1" style="stop-color:#1CD0BB"/>
	</linearGradient>
	
		<rect x="610.773" y="250.213" style="fill:url(#SVGID_00000013168791928648112860000001206022832447704225_);" width="65.102" height="260.68"/>
	
		<linearGradient id="SVGID_00000105423785054868477890000008289860130482839945_" gradientUnits="userSpaceOnUse" x1="646.9265" y1="143.5176" x2="796.5894" y2="402.7414" gradientTransform="matrix(1 0 0 -1 0 630)">
		<stop  offset="0" style="stop-color:#00B4E5"/>
		<stop  offset="1" style="stop-color:#1CD0BB"/>
	</linearGradient>
	
		<rect x="689.207" y="202.848" style="fill:url(#SVGID_00000105423785054868477890000008289860130482839945_);" width="65.102" height="308.045"/>
</g>
</svg>
